<mxfile host="app.diagrams.net" modified="2024-03-13T16:29:38.105Z" agent="Mozilla/5.0 (Windows NT 10.0; Win64; x64) AppleWebKit/537.36 (KHTML, like Gecko) Chrome/122.0.0.0 Safari/537.36" etag="a0Xj-_om40mLy-drEAhW" version="24.0.2" type="github">
  <diagram name="Page-1" id="e7e014a7-5840-1c2e-5031-d8a46d1fe8dd">
    <mxGraphModel dx="2289" dy="1260" grid="1" gridSize="10" guides="1" tooltips="1" connect="1" arrows="1" fold="1" page="1" pageScale="1" pageWidth="1169" pageHeight="826" background="none" math="0" shadow="0">
      <root>
        <mxCell id="0" />
        <mxCell id="1" parent="0" />
        <mxCell id="MQuKsc9Zh-Hjwr5wT4hp-48" value="" style="shape=folder;fontStyle=1;spacingTop=10;tabWidth=40;tabHeight=14;tabPosition=left;html=1;whiteSpace=wrap;" vertex="1" parent="1">
          <mxGeometry x="-10" width="580" height="670" as="geometry" />
        </mxCell>
        <mxCell id="MQuKsc9Zh-Hjwr5wT4hp-49" value="" style="shape=folder;fontStyle=1;spacingTop=10;tabWidth=40;tabHeight=14;tabPosition=left;html=1;whiteSpace=wrap;" vertex="1" parent="1">
          <mxGeometry x="599" width="570" height="670" as="geometry" />
        </mxCell>
        <mxCell id="MQuKsc9Zh-Hjwr5wT4hp-51" value="&lt;font style=&quot;font-size: 6px;&quot;&gt;клиентское ПО&lt;/font&gt;" style="text;html=1;align=center;verticalAlign=middle;resizable=0;points=[];autosize=1;strokeColor=none;fillColor=none;" vertex="1" parent="1">
          <mxGeometry x="-10" y="-10" width="70" height="30" as="geometry" />
        </mxCell>
        <mxCell id="MQuKsc9Zh-Hjwr5wT4hp-54" value="&lt;font style=&quot;font-size: 6px;&quot;&gt;БД&lt;/font&gt;" style="text;html=1;align=center;verticalAlign=middle;resizable=0;points=[];autosize=1;strokeColor=none;fillColor=none;" vertex="1" parent="1">
          <mxGeometry x="600" y="-10" width="30" height="30" as="geometry" />
        </mxCell>
        <mxCell id="MQuKsc9Zh-Hjwr5wT4hp-58" value="" style="ellipse;shape=umlEntity;whiteSpace=wrap;html=1;" vertex="1" parent="1">
          <mxGeometry x="610" y="270" width="70" height="70" as="geometry" />
        </mxCell>
        <mxCell id="MQuKsc9Zh-Hjwr5wT4hp-59" value="Text" style="text;html=1;align=center;verticalAlign=middle;resizable=0;points=[];autosize=1;strokeColor=none;fillColor=none;" vertex="1" parent="1">
          <mxGeometry x="735" y="-82" width="50" height="30" as="geometry" />
        </mxCell>
        <mxCell id="MQuKsc9Zh-Hjwr5wT4hp-60" value="отчет по&amp;nbsp;&lt;div&gt;приемам&amp;nbsp;&lt;/div&gt;&lt;div&gt;в БД&lt;/div&gt;" style="text;html=1;align=center;verticalAlign=middle;resizable=0;points=[];autosize=1;strokeColor=none;fillColor=none;" vertex="1" parent="1">
          <mxGeometry x="605" y="330" width="80" height="60" as="geometry" />
        </mxCell>
        <mxCell id="MQuKsc9Zh-Hjwr5wT4hp-71" value="" style="endArrow=none;startArrow=diamondThin;endFill=0;startFill=1;html=1;verticalAlign=bottom;labelBackgroundColor=none;strokeWidth=1;startSize=8;endSize=8;rounded=0;exitX=0.953;exitY=0.319;exitDx=0;exitDy=0;entryX=0;entryY=0.5;entryDx=0;entryDy=0;exitPerimeter=0;" edge="1" parent="1" source="MQuKsc9Zh-Hjwr5wT4hp-70" target="MQuKsc9Zh-Hjwr5wT4hp-121">
          <mxGeometry width="160" relative="1" as="geometry">
            <mxPoint x="830" y="310" as="sourcePoint" />
            <mxPoint x="840" y="310" as="targetPoint" />
          </mxGeometry>
        </mxCell>
        <mxCell id="MQuKsc9Zh-Hjwr5wT4hp-72" value="информация о&amp;nbsp;&lt;div&gt;проданных&amp;nbsp;&lt;div&gt;автомобилях&lt;/div&gt;&lt;/div&gt;" style="text;html=1;align=center;verticalAlign=middle;resizable=0;points=[];autosize=1;strokeColor=none;fillColor=none;" vertex="1" parent="1">
          <mxGeometry x="695" y="340" width="110" height="60" as="geometry" />
        </mxCell>
        <mxCell id="MQuKsc9Zh-Hjwr5wT4hp-75" value="клиент&amp;nbsp;" style="shape=umlActor;verticalLabelPosition=bottom;verticalAlign=top;html=1;" vertex="1" parent="1">
          <mxGeometry x="30" y="220" width="30" height="60" as="geometry" />
        </mxCell>
        <mxCell id="MQuKsc9Zh-Hjwr5wT4hp-76" value="выбор подержанного&lt;div&gt;&amp;nbsp;автомобиля&lt;/div&gt;" style="text;html=1;align=center;verticalAlign=middle;resizable=0;points=[];autosize=1;strokeColor=none;fillColor=none;" vertex="1" parent="1">
          <mxGeometry x="80" y="270" width="140" height="40" as="geometry" />
        </mxCell>
        <mxCell id="MQuKsc9Zh-Hjwr5wT4hp-77" value="" style="endArrow=none;startArrow=diamondThin;endFill=0;startFill=1;html=1;verticalAlign=bottom;labelBackgroundColor=none;strokeWidth=1;startSize=8;endSize=8;rounded=0;entryX=1;entryY=0.3333333333333333;entryDx=0;entryDy=0;entryPerimeter=0;exitX=-0.01;exitY=0.492;exitDx=0;exitDy=0;exitPerimeter=0;" edge="1" parent="1" source="MQuKsc9Zh-Hjwr5wT4hp-81" target="MQuKsc9Zh-Hjwr5wT4hp-75">
          <mxGeometry width="160" relative="1" as="geometry">
            <mxPoint x="190" y="240" as="sourcePoint" />
            <mxPoint x="210" y="380.5" as="targetPoint" />
          </mxGeometry>
        </mxCell>
        <mxCell id="MQuKsc9Zh-Hjwr5wT4hp-79" value="" style="endArrow=none;startArrow=diamondThin;endFill=0;startFill=1;html=1;verticalAlign=bottom;labelBackgroundColor=none;strokeWidth=1;startSize=8;endSize=8;rounded=0;entryX=1.008;entryY=0.73;entryDx=0;entryDy=0;entryPerimeter=0;exitX=0.308;exitY=0.182;exitDx=0;exitDy=0;exitPerimeter=0;" edge="1" parent="1" source="MQuKsc9Zh-Hjwr5wT4hp-82" target="MQuKsc9Zh-Hjwr5wT4hp-81">
          <mxGeometry width="160" relative="1" as="geometry">
            <mxPoint x="300" y="300" as="sourcePoint" />
            <mxPoint x="336.7957781480877" y="383.10675148528026" as="targetPoint" />
          </mxGeometry>
        </mxCell>
        <mxCell id="MQuKsc9Zh-Hjwr5wT4hp-80" value="покупка&lt;div&gt;&amp;nbsp;подержанного&lt;/div&gt;&lt;div&gt;&amp;nbsp;автомобиля&lt;/div&gt;" style="text;html=1;align=center;verticalAlign=middle;resizable=0;points=[];autosize=1;strokeColor=none;fillColor=none;" vertex="1" parent="1">
          <mxGeometry x="200" y="325" width="110" height="60" as="geometry" />
        </mxCell>
        <mxCell id="MQuKsc9Zh-Hjwr5wT4hp-81" value="&lt;span style=&quot;color: rgba(0, 0, 0, 0); font-family: monospace; font-size: 0px; text-align: start; text-wrap: nowrap;&quot;&gt;%3CmxGraphModel%3E%3Croot%3E%3CmxCell%20id%3D%220%22%2F%3E%3CmxCell%20id%3D%221%22%20parent%3D%220%22%2F%3E%3CmxCell%20id%3D%222%22%20value%3D%22%22%20style%3D%22ellipse%3Bshape%3DumlEntity%3BwhiteSpace%3Dwrap%3Bhtml%3D1%3B%22%20vertex%3D%221%22%20parent%3D%221%22%3E%3CmxGeometry%20x%3D%22320%22%20y%3D%22378%22%20width%3D%2270%22%20height%3D%2270%22%20as%3D%22geometry%22%2F%3E%3C%2FmxCell%3E%3C%2Froot%3E%3C%2FmxGraphModel%3E&lt;/span&gt;" style="shape=umlBoundary;whiteSpace=wrap;html=1;" vertex="1" parent="1">
          <mxGeometry x="130" y="220" width="60" height="50" as="geometry" />
        </mxCell>
        <mxCell id="MQuKsc9Zh-Hjwr5wT4hp-83" value="" style="ellipse;shape=umlEntity;whiteSpace=wrap;html=1;" vertex="1" parent="1">
          <mxGeometry x="250" y="180" width="50" height="50" as="geometry" />
        </mxCell>
        <mxCell id="MQuKsc9Zh-Hjwr5wT4hp-84" value="характеристики автомобиля" style="text;html=1;align=center;verticalAlign=middle;resizable=0;points=[];autosize=1;strokeColor=none;fillColor=none;" vertex="1" parent="1">
          <mxGeometry x="195" y="230" width="180" height="30" as="geometry" />
        </mxCell>
        <mxCell id="MQuKsc9Zh-Hjwr5wT4hp-85" value="" style="endArrow=none;startArrow=diamondThin;endFill=0;startFill=1;html=1;verticalAlign=bottom;labelBackgroundColor=none;strokeWidth=1;startSize=8;endSize=8;rounded=0;entryX=0.09;entryY=0.61;entryDx=0;entryDy=0;entryPerimeter=0;exitX=0.966;exitY=0.392;exitDx=0;exitDy=0;exitPerimeter=0;" edge="1" parent="1" source="MQuKsc9Zh-Hjwr5wT4hp-81" target="MQuKsc9Zh-Hjwr5wT4hp-83">
          <mxGeometry width="160" relative="1" as="geometry">
            <mxPoint x="340" y="180" as="sourcePoint" />
            <mxPoint x="211" y="183" as="targetPoint" />
          </mxGeometry>
        </mxCell>
        <mxCell id="MQuKsc9Zh-Hjwr5wT4hp-86" value="" style="ellipse;shape=umlEntity;whiteSpace=wrap;html=1;" vertex="1" parent="1">
          <mxGeometry x="230" y="100" width="50" height="50" as="geometry" />
        </mxCell>
        <mxCell id="MQuKsc9Zh-Hjwr5wT4hp-88" value="цена автомобиля" style="text;html=1;align=center;verticalAlign=middle;resizable=0;points=[];autosize=1;strokeColor=none;fillColor=none;" vertex="1" parent="1">
          <mxGeometry x="195" y="150" width="120" height="30" as="geometry" />
        </mxCell>
        <mxCell id="MQuKsc9Zh-Hjwr5wT4hp-89" value="" style="endArrow=none;startArrow=diamondThin;endFill=0;startFill=1;html=1;verticalAlign=bottom;labelBackgroundColor=none;strokeWidth=1;startSize=8;endSize=8;rounded=0;entryX=0.039;entryY=0.597;entryDx=0;entryDy=0;entryPerimeter=0;exitX=0.805;exitY=0.024;exitDx=0;exitDy=0;exitPerimeter=0;" edge="1" parent="1" source="MQuKsc9Zh-Hjwr5wT4hp-81" target="MQuKsc9Zh-Hjwr5wT4hp-86">
          <mxGeometry width="160" relative="1" as="geometry">
            <mxPoint x="193" y="170" as="sourcePoint" />
            <mxPoint x="290" y="131" as="targetPoint" />
          </mxGeometry>
        </mxCell>
        <mxCell id="MQuKsc9Zh-Hjwr5wT4hp-82" value="&lt;span style=&quot;color: rgba(0, 0, 0, 0); font-family: monospace; font-size: 0px; text-align: start; text-wrap: nowrap;&quot;&gt;%3CmxGraphModel%3E%3Croot%3E%3CmxCell%20id%3D%220%22%2F%3E%3CmxCell%20id%3D%221%22%20parent%3D%220%22%2F%3E%3CmxCell%20id%3D%222%22%20value%3D%22%22%20style%3D%22ellipse%3Bshape%3DumlEntity%3BwhiteSpace%3Dwrap%3Bhtml%3D1%3B%22%20vertex%3D%221%22%20parent%3D%221%22%3E%3CmxGeometry%20x%3D%22320%22%20y%3D%22378%22%20width%3D%2270%22%20height%3D%2270%22%20as%3D%22geometry%22%2F%3E%3C%2FmxCell%3E%3C%2Froot%3E%3C%2FmxGraphModel%3E&lt;/span&gt;" style="shape=umlBoundary;whiteSpace=wrap;html=1;" vertex="1" parent="1">
          <mxGeometry x="220" y="280" width="60" height="50" as="geometry" />
        </mxCell>
        <mxCell id="MQuKsc9Zh-Hjwr5wT4hp-104" value="" style="endArrow=none;startArrow=diamondThin;endFill=0;startFill=1;html=1;verticalAlign=bottom;labelBackgroundColor=none;strokeWidth=1;startSize=8;endSize=8;rounded=0;entryX=0.626;entryY=0.221;entryDx=0;entryDy=0;entryPerimeter=0;exitX=0.22;exitY=0.853;exitDx=0;exitDy=0;exitPerimeter=0;" edge="1" parent="1" source="MQuKsc9Zh-Hjwr5wT4hp-82" target="MQuKsc9Zh-Hjwr5wT4hp-106">
          <mxGeometry width="160" relative="1" as="geometry">
            <mxPoint x="330" y="350" as="sourcePoint" />
            <mxPoint x="318.70000000000005" y="381.45000000000005" as="targetPoint" />
          </mxGeometry>
        </mxCell>
        <mxCell id="MQuKsc9Zh-Hjwr5wT4hp-105" value="" style="endArrow=none;startArrow=diamondThin;endFill=0;startFill=1;html=1;verticalAlign=bottom;labelBackgroundColor=none;strokeWidth=1;startSize=8;endSize=8;rounded=0;entryX=0.397;entryY=0.242;entryDx=0;entryDy=0;entryPerimeter=0;exitX=0.749;exitY=0.01;exitDx=0;exitDy=0;exitPerimeter=0;" edge="1" parent="1" source="MQuKsc9Zh-Hjwr5wT4hp-80" target="MQuKsc9Zh-Hjwr5wT4hp-108">
          <mxGeometry width="160" relative="1" as="geometry">
            <mxPoint x="398" y="340" as="sourcePoint" />
            <mxPoint x="390.1200000000001" y="382.54999999999995" as="targetPoint" />
          </mxGeometry>
        </mxCell>
        <mxCell id="MQuKsc9Zh-Hjwr5wT4hp-106" value="" style="ellipse;shape=umlControl;whiteSpace=wrap;html=1;" vertex="1" parent="1">
          <mxGeometry x="170" y="345" width="50" height="55" as="geometry" />
        </mxCell>
        <mxCell id="MQuKsc9Zh-Hjwr5wT4hp-108" value="" style="ellipse;shape=umlControl;whiteSpace=wrap;html=1;" vertex="1" parent="1">
          <mxGeometry x="282.5" y="350" width="50" height="55" as="geometry" />
        </mxCell>
        <mxCell id="MQuKsc9Zh-Hjwr5wT4hp-109" value="ввод данных клиента" style="text;html=1;align=center;verticalAlign=middle;resizable=0;points=[];autosize=1;strokeColor=none;fillColor=none;" vertex="1" parent="1">
          <mxGeometry x="110" y="405" width="140" height="30" as="geometry" />
        </mxCell>
        <mxCell id="MQuKsc9Zh-Hjwr5wT4hp-110" value="оплата" style="text;html=1;align=center;verticalAlign=middle;resizable=0;points=[];autosize=1;strokeColor=none;fillColor=none;" vertex="1" parent="1">
          <mxGeometry x="277.5" y="405" width="60" height="30" as="geometry" />
        </mxCell>
        <mxCell id="MQuKsc9Zh-Hjwr5wT4hp-111" value="" style="ellipse;shape=umlControl;whiteSpace=wrap;html=1;" vertex="1" parent="1">
          <mxGeometry x="332.5" y="280" width="50" height="55" as="geometry" />
        </mxCell>
        <mxCell id="MQuKsc9Zh-Hjwr5wT4hp-112" value="оформеление" style="text;html=1;align=center;verticalAlign=middle;resizable=0;points=[];autosize=1;strokeColor=none;fillColor=none;" vertex="1" parent="1">
          <mxGeometry x="300" y="330" width="100" height="30" as="geometry" />
        </mxCell>
        <mxCell id="MQuKsc9Zh-Hjwr5wT4hp-113" value="" style="endArrow=none;startArrow=diamondThin;endFill=0;startFill=0;html=1;verticalAlign=bottom;labelBackgroundColor=none;strokeWidth=1;startSize=8;endSize=8;rounded=0;exitX=0.069;exitY=0.575;exitDx=0;exitDy=0;exitPerimeter=0;entryX=1.048;entryY=0.582;entryDx=0;entryDy=0;entryPerimeter=0;" edge="1" parent="1" source="MQuKsc9Zh-Hjwr5wT4hp-111" target="MQuKsc9Zh-Hjwr5wT4hp-82">
          <mxGeometry width="160" relative="1" as="geometry">
            <mxPoint x="280" y="504.40999999999997" as="sourcePoint" />
            <mxPoint x="280" y="580" as="targetPoint" />
          </mxGeometry>
        </mxCell>
        <mxCell id="MQuKsc9Zh-Hjwr5wT4hp-114" value="" style="ellipse;shape=umlEntity;whiteSpace=wrap;html=1;" vertex="1" parent="1">
          <mxGeometry x="415" y="285" width="50" height="50" as="geometry" />
        </mxCell>
        <mxCell id="MQuKsc9Zh-Hjwr5wT4hp-116" value="соединение с&amp;nbsp;&lt;div&gt;базой&amp;nbsp;&lt;/div&gt;&lt;div&gt;данных&lt;/div&gt;" style="text;html=1;align=center;verticalAlign=middle;resizable=0;points=[];autosize=1;strokeColor=none;fillColor=none;" vertex="1" parent="1">
          <mxGeometry x="470" y="330" width="100" height="60" as="geometry" />
        </mxCell>
        <mxCell id="MQuKsc9Zh-Hjwr5wT4hp-117" value="" style="html=1;verticalAlign=bottom;labelBackgroundColor=none;endArrow=open;endFill=0;dashed=1;rounded=0;exitX=0.961;exitY=0.594;exitDx=0;exitDy=0;exitPerimeter=0;" edge="1" parent="1" source="MQuKsc9Zh-Hjwr5wT4hp-111">
          <mxGeometry width="160" relative="1" as="geometry">
            <mxPoint x="425" y="316.90999999999997" as="sourcePoint" />
            <mxPoint x="420" y="313" as="targetPoint" />
          </mxGeometry>
        </mxCell>
        <mxCell id="MQuKsc9Zh-Hjwr5wT4hp-118" value="" style="ellipse;shape=umlControl;whiteSpace=wrap;html=1;" vertex="1" parent="1">
          <mxGeometry x="495" y="280" width="50" height="55" as="geometry" />
        </mxCell>
        <mxCell id="MQuKsc9Zh-Hjwr5wT4hp-119" value="" style="html=1;verticalAlign=bottom;labelBackgroundColor=none;endArrow=open;endFill=0;dashed=1;rounded=0;entryX=0.111;entryY=0.551;entryDx=0;entryDy=0;entryPerimeter=0;exitX=1;exitY=0.5;exitDx=0;exitDy=0;" edge="1" parent="1" source="MQuKsc9Zh-Hjwr5wT4hp-114" target="MQuKsc9Zh-Hjwr5wT4hp-118">
          <mxGeometry width="160" relative="1" as="geometry">
            <mxPoint x="400" y="320" as="sourcePoint" />
            <mxPoint x="430" y="323" as="targetPoint" />
          </mxGeometry>
        </mxCell>
        <mxCell id="MQuKsc9Zh-Hjwr5wT4hp-120" value="" style="html=1;verticalAlign=bottom;labelBackgroundColor=none;endArrow=open;endFill=0;dashed=1;rounded=0;exitX=1.052;exitY=0.615;exitDx=0;exitDy=0;exitPerimeter=0;entryX=0.998;entryY=0.467;entryDx=0;entryDy=0;entryPerimeter=0;" edge="1" parent="1" source="MQuKsc9Zh-Hjwr5wT4hp-118" target="MQuKsc9Zh-Hjwr5wT4hp-48">
          <mxGeometry width="160" relative="1" as="geometry">
            <mxPoint x="391" y="323" as="sourcePoint" />
            <mxPoint x="430" y="323" as="targetPoint" />
          </mxGeometry>
        </mxCell>
        <mxCell id="MQuKsc9Zh-Hjwr5wT4hp-121" value="" style="ellipse;shape=umlEntity;whiteSpace=wrap;html=1;" vertex="1" parent="1">
          <mxGeometry x="825" y="230" width="70" height="70" as="geometry" />
        </mxCell>
        <mxCell id="MQuKsc9Zh-Hjwr5wT4hp-122" value="" style="endArrow=none;startArrow=diamondThin;endFill=0;startFill=1;html=1;verticalAlign=bottom;labelBackgroundColor=none;strokeWidth=1;startSize=8;endSize=8;rounded=0;" edge="1" parent="1" target="MQuKsc9Zh-Hjwr5wT4hp-70">
          <mxGeometry width="160" relative="1" as="geometry">
            <mxPoint x="680" y="310" as="sourcePoint" />
            <mxPoint x="760" y="310.5" as="targetPoint" />
          </mxGeometry>
        </mxCell>
        <mxCell id="MQuKsc9Zh-Hjwr5wT4hp-70" value="" style="ellipse;shape=umlEntity;whiteSpace=wrap;html=1;" vertex="1" parent="1">
          <mxGeometry x="715" y="275" width="70" height="70" as="geometry" />
        </mxCell>
        <mxCell id="MQuKsc9Zh-Hjwr5wT4hp-123" value="дата&amp;nbsp;проданныx автомобили" style="text;html=1;align=center;verticalAlign=middle;resizable=0;points=[];autosize=1;strokeColor=none;fillColor=none;" vertex="1" parent="1">
          <mxGeometry x="794" y="295" width="180" height="30" as="geometry" />
        </mxCell>
        <mxCell id="MQuKsc9Zh-Hjwr5wT4hp-124" value="" style="ellipse;shape=umlEntity;whiteSpace=wrap;html=1;" vertex="1" parent="1">
          <mxGeometry x="825" y="330" width="70" height="70" as="geometry" />
        </mxCell>
        <mxCell id="MQuKsc9Zh-Hjwr5wT4hp-125" value="цена автомобиля" style="text;html=1;align=center;verticalAlign=middle;resizable=0;points=[];autosize=1;strokeColor=none;fillColor=none;" vertex="1" parent="1">
          <mxGeometry x="949" y="370" width="120" height="30" as="geometry" />
        </mxCell>
        <mxCell id="MQuKsc9Zh-Hjwr5wT4hp-126" value="" style="endArrow=none;startArrow=diamondThin;endFill=0;startFill=1;html=1;verticalAlign=bottom;labelBackgroundColor=none;strokeWidth=1;startSize=8;endSize=8;rounded=0;entryX=0;entryY=0.5;entryDx=0;entryDy=0;" edge="1" parent="1" source="MQuKsc9Zh-Hjwr5wT4hp-70" target="MQuKsc9Zh-Hjwr5wT4hp-124">
          <mxGeometry width="160" relative="1" as="geometry">
            <mxPoint x="795" y="320" as="sourcePoint" />
            <mxPoint x="835" y="275" as="targetPoint" />
          </mxGeometry>
        </mxCell>
        <mxCell id="MQuKsc9Zh-Hjwr5wT4hp-127" value="" style="ellipse;shape=umlEntity;whiteSpace=wrap;html=1;" vertex="1" parent="1">
          <mxGeometry x="794" y="130" width="70" height="70" as="geometry" />
        </mxCell>
        <mxCell id="MQuKsc9Zh-Hjwr5wT4hp-128" value="" style="endArrow=none;startArrow=diamondThin;endFill=0;startFill=1;html=1;verticalAlign=bottom;labelBackgroundColor=none;strokeWidth=1;startSize=8;endSize=8;rounded=0;entryX=0;entryY=0.5;entryDx=0;entryDy=0;exitX=0.617;exitY=0.084;exitDx=0;exitDy=0;exitPerimeter=0;" edge="1" parent="1" source="MQuKsc9Zh-Hjwr5wT4hp-70" target="MQuKsc9Zh-Hjwr5wT4hp-127">
          <mxGeometry width="160" relative="1" as="geometry">
            <mxPoint x="790" y="338" as="sourcePoint" />
            <mxPoint x="835" y="365" as="targetPoint" />
          </mxGeometry>
        </mxCell>
        <mxCell id="MQuKsc9Zh-Hjwr5wT4hp-129" value="&lt;span style=&quot;color: rgba(0, 0, 0, 0); font-family: monospace; font-size: 0px; text-align: start;&quot;&gt;%3CmxGraphModel%3E%3Croot%3E%3CmxCell%20id%3D%220%22%2F%3E%3CmxCell%20id%3D%221%22%20parent%3D%220%22%2F%3E%3CmxCell%20id%3D%222%22%20value%3D%22%D0%B4%D0%B0%D1%82%D0%B0%26amp%3Bnbsp%3B%D0%BF%D1%80%D0%BE%D0%B4%D0%B0%D0%BD%D0%BD%D1%8Bx%20%D0%B0%D0%B2%D1%82%D0%BE%D0%BC%D0%BE%D0%B1%D0%B8%D0%BB%D0%B8%22%20style%3D%22text%3Bhtml%3D1%3Balign%3Dcenter%3BverticalAlign%3Dmiddle%3Bresizable%3D0%3Bpoints%3D%5B%5D%3Bautosize%3D1%3BstrokeColor%3Dnone%3BfillColor%3Dnone%3B%22%20vertex%3D%221%22%20parent%3D%221%22%3E%3CmxGeometry%20x%3D%22794%22%20y%3D%22295%22%20width%3D%22180%22%20height%3D%2230%22%20as%3D%22geometry%22%2F%3E%3C%2FmxCell%3E%3C%2Froot%3E%3C%2FmxGraphModel%3E&lt;/span&gt;" style="text;html=1;align=center;verticalAlign=middle;resizable=0;points=[];autosize=1;strokeColor=none;fillColor=none;" vertex="1" parent="1">
          <mxGeometry x="850" y="200" width="20" height="30" as="geometry" />
        </mxCell>
        <mxCell id="MQuKsc9Zh-Hjwr5wT4hp-130" value="информация о клиенте" style="text;html=1;align=center;verticalAlign=middle;resizable=0;points=[];autosize=1;strokeColor=none;fillColor=none;" vertex="1" parent="1">
          <mxGeometry x="775" y="200" width="150" height="30" as="geometry" />
        </mxCell>
        <mxCell id="MQuKsc9Zh-Hjwr5wT4hp-131" value="электронная&lt;div&gt;&amp;nbsp;таблица&lt;/div&gt;" style="text;html=1;align=center;verticalAlign=middle;resizable=0;points=[];autosize=1;strokeColor=none;fillColor=none;" vertex="1" parent="1">
          <mxGeometry x="395" y="335" width="90" height="40" as="geometry" />
        </mxCell>
        <mxCell id="MQuKsc9Zh-Hjwr5wT4hp-132" value="" style="ellipse;shape=umlEntity;whiteSpace=wrap;html=1;" vertex="1" parent="1">
          <mxGeometry x="940" y="130" width="70" height="70" as="geometry" />
        </mxCell>
        <mxCell id="MQuKsc9Zh-Hjwr5wT4hp-133" value="рейтинг клиента" style="text;html=1;align=center;verticalAlign=middle;resizable=0;points=[];autosize=1;strokeColor=none;fillColor=none;" vertex="1" parent="1">
          <mxGeometry x="920" y="200" width="110" height="30" as="geometry" />
        </mxCell>
        <mxCell id="MQuKsc9Zh-Hjwr5wT4hp-134" value="" style="endArrow=none;startArrow=diamondThin;endFill=0;startFill=1;html=1;verticalAlign=bottom;labelBackgroundColor=none;strokeWidth=1;startSize=8;endSize=8;rounded=0;exitX=1;exitY=0.5;exitDx=0;exitDy=0;entryX=0;entryY=0.5;entryDx=0;entryDy=0;" edge="1" parent="1" source="MQuKsc9Zh-Hjwr5wT4hp-127" target="MQuKsc9Zh-Hjwr5wT4hp-132">
          <mxGeometry width="160" relative="1" as="geometry">
            <mxPoint x="882" y="182" as="sourcePoint" />
            <mxPoint x="925" y="150" as="targetPoint" />
          </mxGeometry>
        </mxCell>
        <mxCell id="MQuKsc9Zh-Hjwr5wT4hp-135" value="" style="ellipse;shape=umlEntity;whiteSpace=wrap;html=1;" vertex="1" parent="1">
          <mxGeometry x="974" y="295" width="70" height="70" as="geometry" />
        </mxCell>
        <mxCell id="MQuKsc9Zh-Hjwr5wT4hp-136" value="" style="endArrow=none;startArrow=diamondThin;endFill=0;startFill=1;html=1;verticalAlign=bottom;labelBackgroundColor=none;strokeWidth=1;startSize=8;endSize=8;rounded=0;" edge="1" parent="1" source="MQuKsc9Zh-Hjwr5wT4hp-124" target="MQuKsc9Zh-Hjwr5wT4hp-135">
          <mxGeometry width="160" relative="1" as="geometry">
            <mxPoint x="898" y="372" as="sourcePoint" />
            <mxPoint x="974" y="372" as="targetPoint" />
          </mxGeometry>
        </mxCell>
        <mxCell id="MQuKsc9Zh-Hjwr5wT4hp-137" value="информация&lt;div&gt;&amp;nbsp;об&amp;nbsp;&lt;/div&gt;&lt;div&gt;автомобиле&lt;/div&gt;" style="text;html=1;align=center;verticalAlign=middle;resizable=0;points=[];autosize=1;strokeColor=none;fillColor=none;" vertex="1" parent="1">
          <mxGeometry x="810" y="400" width="100" height="60" as="geometry" />
        </mxCell>
        <mxCell id="MQuKsc9Zh-Hjwr5wT4hp-138" value="" style="ellipse;shape=umlEntity;whiteSpace=wrap;html=1;" vertex="1" parent="1">
          <mxGeometry x="974" y="400" width="70" height="70" as="geometry" />
        </mxCell>
        <mxCell id="MQuKsc9Zh-Hjwr5wT4hp-139" value="" style="endArrow=none;startArrow=diamondThin;endFill=0;startFill=1;html=1;verticalAlign=bottom;labelBackgroundColor=none;strokeWidth=1;startSize=8;endSize=8;rounded=0;entryX=0;entryY=0.5;entryDx=0;entryDy=0;exitX=0.9;exitY=0.729;exitDx=0;exitDy=0;exitPerimeter=0;" edge="1" parent="1" source="MQuKsc9Zh-Hjwr5wT4hp-124" target="MQuKsc9Zh-Hjwr5wT4hp-138">
          <mxGeometry width="160" relative="1" as="geometry">
            <mxPoint x="880" y="470" as="sourcePoint" />
            <mxPoint x="961" y="451" as="targetPoint" />
          </mxGeometry>
        </mxCell>
        <mxCell id="MQuKsc9Zh-Hjwr5wT4hp-140" value="бренд автомобиля" style="text;html=1;align=center;verticalAlign=middle;resizable=0;points=[];autosize=1;strokeColor=none;fillColor=none;" vertex="1" parent="1">
          <mxGeometry x="944" y="470" width="130" height="30" as="geometry" />
        </mxCell>
      </root>
    </mxGraphModel>
  </diagram>
</mxfile>
